<svg width="48" height="48" viewBox="0 0 48 48" fill="none" xmlns="http://www.w3.org/2000/svg">
<path d="M34.35 34C33.35 34 32.5833 33.5753 32.05 32.726C31.5167 31.8753 31.4833 31 31.95 30.1L34 26H30C28.9 26 27.9587 25.608 27.176 24.824C26.392 24.0413 26 23.1 26 22V16C26 14.9 26.392 13.9587 27.176 13.176C27.9587 12.392 28.9 12 30 12H36C37.1 12 38.042 12.392 38.826 13.176C39.6087 13.9587 40 14.9 40 16V25.05C40 25.35 39.9747 25.6587 39.924 25.976C39.8747 26.292 39.7667 26.5833 39.6 26.85L36.75 32.5C36.5167 32.9667 36.1833 33.3333 35.75 33.6C35.3167 33.8667 34.85 34 34.35 34ZM16.35 34C15.35 34 14.5833 33.5753 14.05 32.726C13.5167 31.8753 13.4833 31 13.95 30.1L16 26H12C10.9 26 9.95867 25.608 9.176 24.824C8.392 24.0413 8 23.1 8 22V16C8 14.9 8.392 13.9587 9.176 13.176C9.95867 12.392 10.9 12 12 12H18C19.1 12 20.042 12.392 20.826 13.176C21.6087 13.9587 22 14.9 22 16V25.05C22 25.35 21.9753 25.6587 21.926 25.976C21.8753 26.292 21.7667 26.5833 21.6 26.85L18.75 32.5C18.5167 32.9667 18.1833 33.3333 17.75 33.6C17.3167 33.8667 16.85 34 16.35 34Z" fill="#028A0F"/>
</svg>
