<svg width="32" height="23" viewBox="0 0 32 23" fill="none" xmlns="http://www.w3.org/2000/svg">
<path d="M2.28571 0H13.7143C14.3205 0 14.9019 0.242321 15.3305 0.673654C15.7592 1.10499 16 1.69 16 2.3C16 2.91 15.7592 3.49501 15.3305 3.92635C14.9019 4.35768 14.3205 4.6 13.7143 4.6H2.28571C1.67951 4.6 1.09812 4.35768 0.66947 3.92635C0.240816 3.49501 0 2.91 0 2.3C0 1.69 0.240816 1.10499 0.66947 0.673654C1.09812 0.242321 1.67951 0 2.28571 0ZM18.2857 18.4H29.7143C30.3205 18.4 30.9019 18.6423 31.3305 19.0737C31.7592 19.505 32 20.09 32 20.7C32 21.31 31.7592 21.895 31.3305 22.3263C30.9019 22.7577 30.3205 23 29.7143 23H18.2857C17.6795 23 17.0981 22.7577 16.6695 22.3263C16.2408 21.895 16 21.31 16 20.7C16 20.09 16.2408 19.505 16.6695 19.0737C17.0981 18.6423 17.6795 18.4 18.2857 18.4ZM2.28571 9.2H29.7143C30.3205 9.2 30.9019 9.44232 31.3305 9.87365C31.7592 10.305 32 10.89 32 11.5C32 12.11 31.7592 12.695 31.3305 13.1263C30.9019 13.5577 30.3205 13.8 29.7143 13.8H2.28571C1.67951 13.8 1.09812 13.5577 0.66947 13.1263C0.240816 12.695 0 12.11 0 11.5C0 10.89 0.240816 10.305 0.66947 9.87365C1.09812 9.44232 1.67951 9.2 2.28571 9.2Z" fill="#000D41"/>
</svg>
