<svg width="1240" height="360" viewBox="0 0 1240 360" fill="none" xmlns="http://www.w3.org/2000/svg">
<g clip-path="url(#clip0_7_2135)">
<rect width="1240" height="360" fill="url(#paint0_linear_7_2135)"/>
<path d="M1186.81 294.246L1176.89 303.423C1175.7 304.541 1174.58 305.737 1173.36 306.835L1160.4 318.384C1158.44 320.07 1156.62 321.874 1154.74 323.599C1153.56 324.759 1152.33 325.858 1151.05 326.894C1150.38 327.384 1149.7 327.835 1149.09 328.286C1148.48 328.737 1147.6 329.109 1146.87 329.521C1146.15 329.933 1145.89 329.521 1146.28 328.697C1146.91 327.323 1147.65 326.011 1148.52 324.776C1150.68 322.325 1153.21 320.188 1155.56 317.854C1157.91 315.521 1160.38 313.305 1162.91 311.109C1165.91 308.462 1168.68 305.325 1171.54 302.403L1181.01 292.756C1182.97 290.795 1184.93 288.835 1186.77 286.874C1189.64 283.815 1192.66 280.795 1195.25 277.599C1197.23 275.096 1199.07 272.477 1200.76 269.756C1201.13 269.168 1201.46 268.56 1201.85 267.992C1202.52 266.972 1203.03 266.344 1203.7 266.031C1204.41 266.044 1205.13 266.11 1205.83 266.227C1206.25 266.227 1206.68 266.227 1207.03 266.227C1207.38 266.227 1208.03 266.619 1208.3 267.443C1208.44 267.947 1208.48 268.472 1208.42 268.992C1208.38 269.496 1208.22 269.984 1207.97 270.423C1204.93 275.723 1201.16 280.562 1196.76 284.795C1193.58 288.05 1190.26 291.188 1186.95 294.364L1186.81 294.246Z" fill="#90D296"/>
<path d="M1153.89 350.56C1156.38 351.09 1158.81 351.776 1161.23 352.521C1162.11 352.776 1163.01 352.972 1163.89 353.286C1166.93 354.43 1169.87 355.806 1172.7 357.403C1173.95 358.129 1175.25 358.756 1176.5 359.364C1177.34 359.793 1178.13 360.298 1178.87 360.874C1179.56 361.559 1180.14 362.338 1180.6 363.188C1180.89 363.717 1180.42 364.05 1179.58 364.266C1178.59 364.541 1177.56 364.608 1176.54 364.462C1176.13 364.374 1175.75 364.2 1175.42 363.952L1174.4 363.286L1172.23 362.011L1167.76 359.462C1165.83 358.515 1163.79 357.798 1161.7 357.325C1159.42 356.639 1157.11 356.07 1154.77 355.56C1153.32 355.286 1151.87 355.011 1150.4 354.815L1147.07 354.443C1145.95 354.443 1144.83 354.305 1143.72 354.305C1141.99 354.424 1140.28 354.673 1138.6 355.05C1138.23 355.05 1137.85 355.247 1137.48 355.305C1136.09 355.305 1135.52 354.992 1135.23 353.619C1135.23 353.325 1135.03 353.05 1134.97 352.796C1134.8 351.778 1135.38 350.784 1136.34 350.423C1137.9 349.781 1139.55 349.416 1141.23 349.345C1142.92 349.217 1144.63 349.217 1146.32 349.345C1148.87 349.531 1151.4 349.864 1153.91 350.345L1153.89 350.56Z" fill="#90D296"/>
<path d="M1167.79 316.383L1141.99 336.619C1138.85 339.089 1135.87 341.697 1132.72 344.148C1129.86 346.147 1127.23 348.455 1124.87 351.03C1124.26 351.671 1123.61 352.268 1122.91 352.815C1122.7 353.011 1122.66 353.03 1122.6 353.05C1122.53 353.107 1122.47 353.173 1122.42 353.246C1122.23 353.501 1121.99 353.776 1121.79 354.07C1120.95 355.246 1120.3 356.697 1119.48 357.991C1117.86 360.949 1116.46 364.015 1115.26 367.168L1114.79 368.364L1114.25 369.893L1112.81 373.638C1111.95 376.05 1111.17 378.462 1110.32 380.285C1109.75 381.545 1109.01 382.725 1108.13 383.795C1107.8 384.261 1107.33 384.612 1106.79 384.795H1106.48C1106.48 385.05 1106.48 384.795 1106.48 384.932H1106.32C1106.14 384.872 1105.95 384.8 1105.77 384.717C1105.42 384.541 1105.09 384.316 1104.79 384.05C1104.48 383.795 1104.23 383.54 1103.95 383.305C1103.69 383.01 1103.45 382.703 1103.23 382.383C1102.77 381.762 1102.35 381.106 1101.99 380.423C1101.55 379.685 1101.16 378.918 1100.81 378.128C1100.53 377.253 1100.21 376.37 1099.87 375.481C1099.48 374.285 1099.25 372.854 1098.85 371.56L1098.34 369.403C1098.15 368.736 1098.01 367.776 1097.91 367.442L1097.34 364.462C1097.1 363.484 1096.95 362.487 1096.89 361.481L1096.46 355.756C1096.37 354.857 1096.34 353.953 1096.36 353.05C1096.36 352.281 1096.29 351.514 1096.17 350.756C1096.17 350.344 1096.17 350.148 1096.17 349.893C1096.17 349.606 1096.28 349.329 1096.46 349.109C1097.22 348.363 1098.4 348.248 1099.28 348.834C1101.07 349.797 1102.63 351.135 1103.85 352.756C1105.27 354.599 1106.25 356.747 1106.7 359.03C1106.87 360.05 1107.11 360.991 1107.19 362.089V366.619C1107.19 366.972 1107.19 366.874 1107.19 366.874C1107.1 367.068 1107.1 367.287 1107.19 367.481C1107.3 367.736 1107.38 367.736 1107.64 367.481L1107.85 367.187C1107.85 367.187 1107.85 367.187 1107.95 366.952L1108.07 366.579L1108.54 365.089C1109.21 363.128 1109.91 361.168 1110.74 359.207C1111.23 358.011 1111.74 356.815 1112.28 355.619C1112.58 355.011 1112.85 354.403 1113.17 353.795C1113.48 353.187 1113.87 352.619 1114.25 352.03C1115.05 350.784 1115.95 349.598 1116.93 348.481C1117.29 348.131 1117.67 347.803 1118.07 347.501L1118.79 346.932C1119.28 346.533 1119.79 346.167 1120.32 345.834C1121.38 345.148 1122.5 344.521 1123.5 343.874L1126.3 341.109L1131.89 336.109L1156.48 314.383L1164.07 307.677C1166.62 305.481 1169.17 303.285 1171.7 301.05C1179.36 294.305 1187.05 287.521 1194.32 280.462C1197.13 277.697 1199.79 274.854 1202.4 271.972C1205.01 269.089 1207.52 266.089 1210.07 263.246C1211.17 261.932 1212.34 260.756 1213.56 259.56C1215.13 257.923 1216.91 256.499 1218.85 255.325C1219.46 254.976 1220.12 254.737 1220.81 254.619C1221.47 254.554 1222.12 254.554 1222.77 254.619C1223.3 254.619 1223.87 254.619 1224.25 254.619C1225.28 254.717 1225.21 258.128 1222.58 262.246C1221.64 263.815 1220.62 265.266 1219.6 266.776L1218.05 269.03C1217.52 269.776 1216.91 270.442 1216.34 271.148C1213.83 273.959 1211.32 276.691 1208.81 279.344C1206.26 281.972 1203.64 284.56 1200.97 287.187L1192.97 294.756C1184.81 302.168 1176.51 309.429 1168.05 316.54L1167.79 316.383Z" fill="#90D296"/>
<path d="M1178.09 290.423C1171.55 294.345 1165.02 298.266 1158.48 302.188C1156.11 303.639 1153.87 305.286 1151.5 306.717L1126.42 321.874C1122.68 324.09 1119.05 326.521 1115.48 328.933C1110.9 332.057 1106.13 334.887 1101.19 337.404C1099.64 338.168 1099.42 337.521 1100.09 335.953C1101.16 333.538 1102.66 331.339 1104.52 329.462L1107.64 326.58L1109.21 325.109L1110.89 323.815C1113.14 322.09 1115.42 320.404 1117.72 318.756C1120.03 317.109 1122.32 315.443 1124.76 313.953C1127.19 312.462 1129.64 310.894 1132.19 309.58C1138.17 306.247 1143.83 301.953 1149.68 298.149C1156.11 293.972 1162.62 289.894 1169.09 285.796L1181.09 278.247C1187.11 274.325 1193.25 270.678 1199.13 266.678C1203.7 263.58 1208.03 260.286 1212.54 257.168C1213.54 256.482 1214.5 255.756 1215.52 255.207C1219.44 252.835 1221.4 253.011 1222.97 254.109C1223.36 254.336 1223.74 254.592 1224.09 254.874C1224.6 255.364 1224.56 256.07 1224.09 256.992C1223.54 258.21 1222.76 259.304 1221.77 260.207C1220.03 261.992 1218.09 263.443 1216.19 265.09C1214.28 266.737 1212.27 268.247 1210.3 269.815C1206.28 272.964 1202.07 275.871 1197.7 278.521C1191.27 282.639 1184.68 286.6 1178.09 290.678V290.423Z" fill="#90D296"/>
<path d="M1164.62 357.58C1162.16 356.711 1159.64 356.004 1157.09 355.462C1156.15 355.227 1155.13 355.325 1154.23 355.129C1152.56 354.756 1150.87 354.619 1149.15 354.364C1147.42 354.153 1145.69 354.042 1143.95 354.031C1142.42 354.04 1140.89 354.238 1139.4 354.619C1137.55 355.272 1135.6 355.617 1133.64 355.639C1132.99 355.639 1132.66 353.972 1132.79 352.305C1132.93 350.639 1133.6 348.913 1134.76 348.599C1139.05 347.526 1143.52 347.372 1147.87 348.148C1150.48 348.599 1153.21 348.384 1155.85 348.756C1158.76 349.179 1161.62 349.835 1164.42 350.717C1166.15 351.286 1167.85 351.835 1169.52 352.482C1172.07 353.403 1174.48 354.658 1176.95 355.737C1178.92 356.476 1180.84 357.348 1182.7 358.344C1183.07 358.619 1183.48 358.854 1183.83 359.168C1185.11 360.403 1185.25 361.129 1184.7 362.305C1184.6 362.56 1184.49 362.809 1184.36 363.05C1183.7 363.842 1182.62 364.146 1181.64 363.815C1180.76 363.619 1179.79 363.521 1178.91 363.364C1178.07 363.189 1177.26 362.906 1176.5 362.521L1171.79 360.56C1169.42 359.532 1166.98 358.648 1164.5 357.913L1164.62 357.58Z" fill="#90D296"/>
<path d="M1208.52 297.737C1207.5 300.031 1206.56 302.364 1205.56 304.698C1204.56 307.031 1203.6 309.345 1202.66 311.717C1201.97 313.423 1201.52 315.227 1200.85 316.953C1198.5 323.031 1196.27 329.188 1194.46 335.443C1193.72 338.345 1192.97 341.051 1192.38 343.854C1192.03 345.639 1191.72 347.443 1191.44 349.227C1191.04 350.948 1190.72 352.689 1190.5 354.443C1190.5 355.305 1190.03 355.639 1189.05 354.717C1187.79 353.216 1187 351.385 1186.76 349.443C1186.66 345.51 1186.89 341.575 1187.42 337.678C1188.16 333.868 1189.2 330.124 1190.54 326.482C1192.13 322.09 1193.03 317.364 1194.46 312.756C1196.05 307.796 1197.72 302.953 1199.72 298.031C1200.91 295.07 1202.19 292.149 1203.44 289.168C1205.4 284.698 1207.52 280.305 1209.54 275.913C1210.36 274.207 1211.05 272.462 1211.79 270.717C1212.47 268.939 1213.29 267.215 1214.23 265.56C1214.66 264.835 1214.99 264.07 1215.5 263.364C1217.34 260.756 1218.56 260.305 1220.42 261.031C1220.86 261.169 1221.29 261.339 1221.7 261.541C1222.99 262.305 1223.17 264.011 1222.4 265.953C1221.25 268.874 1220.44 272.011 1218.89 274.894L1214.74 283.913C1212.77 288.462 1210.6 293.07 1208.74 297.776L1208.52 297.737Z" fill="#90D296"/>
<path d="M1144.83 297.58L1114.25 310.129C1110.52 311.658 1106.93 313.442 1103.21 314.972L1083.6 323.05L1081.21 324.07L1079.99 324.619L1079.03 325.05L1076.89 325.874C1075.42 326.482 1073.77 327.168 1072.05 327.972C1071.66 328.148 1071.28 328.325 1070.93 328.521C1070.74 328.611 1070.57 328.73 1070.42 328.874C1070.54 328.874 1070.76 328.874 1070.93 328.874L1073.19 329.031C1074.76 329.129 1076.36 329.227 1077.81 329.384C1078.28 329.384 1078.76 329.482 1079.21 329.56C1079.34 329.56 1079.36 329.56 1079.62 329.56L1080.4 329.737L1081.95 330.09C1084.04 330.586 1086.1 331.241 1088.09 332.05C1090.19 332.886 1092.16 333.994 1093.97 335.344C1095.87 336.834 1097.33 338.823 1098.17 341.09C1098.7 342.501 1098.46 343.246 1098.03 343.384C1097.6 343.521 1096.77 343.129 1095.6 342.717C1094.11 342.261 1092.56 342.055 1091.01 342.109C1089.26 341.942 1087.53 341.601 1085.85 341.09C1084.17 340.565 1082.45 340.153 1080.72 339.854C1079.81 339.697 1078.91 339.541 1077.99 339.423L1077.28 339.305L1075.76 339.09C1074.7 339.09 1073.58 338.972 1072.48 338.913L1069.25 338.521L1065.89 338.188L1062.42 337.913L1060.68 337.795C1060.15 337.777 1059.62 337.704 1059.11 337.58C1057.74 337.308 1056.44 336.747 1055.3 335.933C1054.65 335.548 1054.16 334.933 1053.93 334.207C1053.8 333.742 1053.74 333.259 1053.76 332.776C1053.79 332.502 1053.79 332.226 1053.76 331.952C1053.72 331.686 1053.72 331.415 1053.76 331.148C1053.96 329.66 1054.65 328.28 1055.72 327.227C1056.77 326.105 1058.02 325.188 1059.4 324.521L1060.03 324.188L1061.09 323.913C1061.76 323.737 1062.54 323.56 1063.05 323.384L1065.91 322.168L1071.42 319.893L1074.09 318.913L1075.32 318.403L1075.89 318.188L1076.25 318.05C1085.46 314.403 1094.56 309.619 1103.7 305.462L1134.27 291.874L1152.95 283.442C1162.32 279.129 1171.91 275.168 1181.11 270.619C1184.68 268.874 1188.15 266.992 1191.58 265.07L1201.95 259.619C1203.48 258.815 1204.93 257.972 1206.48 257.188C1208.03 256.403 1209.09 255.893 1210.09 255.442C1210.95 255.11 1211.85 254.847 1212.76 254.658C1213.89 254.395 1215.07 254.395 1216.21 254.658C1216.65 254.74 1217.09 254.798 1217.54 254.835C1218.21 254.933 1218.17 255.815 1217.42 257.05C1216.33 258.718 1215.01 260.223 1213.5 261.521C1207.62 265.933 1201.58 270.011 1195.27 273.933C1188.79 277.521 1182.13 280.874 1175.4 284.168C1170.4 286.58 1165.52 289.031 1160.3 291.286L1144.95 297.835L1144.83 297.58Z" fill="#90D296"/>
</g>
<defs>
<linearGradient id="paint0_linear_7_2135" x1="0" y1="0" x2="192.783" y2="664.031" gradientUnits="userSpaceOnUse">
<stop stop-color="#028A0F"/>
<stop offset="1" stop-color="#90D296"/>
</linearGradient>
<clipPath id="clip0_7_2135">
<rect width="1240" height="360" fill="white"/>
</clipPath>
</defs>
</svg>
